<svg width="32" height="32" xmlns="http://www.w3.org/2000/svg">
 <g>
  <title>Layer 1</title>
  <rect stroke-width="4" stroke="#b2b2b2" id="svg_1" height="31.55556" width="32" y="0" x="0" fill="#cccccc"/>
  <rect stroke-width="0" id="svg_1" height="26" width="8" y="2.75" x="4" stroke="#000" fill="#444444"/>
  <rect stroke="#000" stroke-width="0" id="svg_2" height="16" width="20" y="7" x="4" fill="#444444"/>
  <rect stroke="#000" id="svg_3" height="26" width="9" y="2.75" x="19" stroke-width="0" fill="#444444"/>

  <rect width="2" height="2" y="4" x="7" fill="#FFFF00"/>
  <rect width="2" height="2" y="8" x="7" fill="#FFFF00"/>
  <rect width="2" height="2" y="12" x="7" fill="#FFFF00"/>
  <rect width="2" height="2" y="16" x="7" fill="#FFFF00"/>
  <rect width="2" height="2" y="20" x="7" fill="#FFFF00"/>
  <rect width="2" height="2" y="24" x="7" fill="#FFFF00"/>

  <rect width="2" height="2" y="4" x="23" fill="#FFFF00"/>
  <rect width="2" height="2" y="8" x="23" fill="#FFFF00"/>
  <rect width="2" height="2" y="12" x="23" fill="#FFFF00"/>
  <rect width="2" height="2" y="16" x="23" fill="#FFFF00"/>
  <rect width="2" height="2" y="20" x="23" fill="#FFFF00"/>
  <rect width="2" height="2" y="24" x="23" fill="#FFFF00"/>
 </g>

</svg>