<svg width="32" height="32" xmlns="http://www.w3.org/2000/svg">
 <g>
  <title>Layer 1</title>
  <rect stroke-width="4" stroke="#b2b2b2" id="svg_1" height="31.55556" width="32" y="0" x="0" fill="#cccccc"/>
  <rect stroke="#7f3f00" id="svg_5" height="6.62338" width="2.46753" y="11.12987" x="26.77922" fill="#bf5f00"/>
  <rect stroke="#7f3f00" id="svg_6" height="6.62338" width="2.46753" y="11.12987" x="21.71429" fill="#bf5f00"/>
  <rect id="svg_4" height="3.16547" width="14.82014" y="14.64711" x="14.43502" stroke="#7f3f00" fill="#bf5f00   "/>
  <path id="svg_2" d="m3.16883,15.97031l0,0c0,-3.61568 2.93109,-6.54676 6.54676,-6.54676l0,0c1.73631,0 3.4015,0.68975 4.62926,1.9175c1.22776,1.22776 1.9175,2.89295 1.9175,4.62926l0,0c0,3.61568 -2.93109,6.54676 -6.54676,6.54676l0,0c-3.61568,0 -6.54676,-2.93109 -6.54676,-6.54676zm3.27338,0l0,0c0,1.80784 1.46554,3.27338 3.27338,3.27338c1.80784,0 3.27338,-1.46554 3.27338,-3.27338c0,-1.80784 -1.46554,-3.27338 -3.27338,-3.27338l0,0c-1.80784,0 -3.27338,1.46554 -3.27338,3.27338z" stroke="#7f3f00" fill="#bf5f00"/>
 </g>

</svg>